HIERARCHY
ROOT pelvis
{
  OFFSET 0 100 0
  CHANNELS 6 Xposition Yposition Zposition Zrotation Xrotation Yrotation
  JOINT pelvis_right_femur
  {
    OFFSET -10.78128 -3.44521 -0.5502486
    CHANNELS 3 Zrotation Xrotation Yrotation
    JOINT right_femur_tibia
    {
      OFFSET -0.8047443 -44.0398 -0.1307829
      CHANNELS 3 Zrotation Xrotation Yrotation
      JOINT right_tibia_foot
      {
        OFFSET 3.006224 -47.83518 -5
        CHANNELS 3 Zrotation Xrotation Yrotation
        End Site
        {
          OFFSET 0 -5 15
        }
      }
    }
  }
  JOINT pelvis_left_femur
  {
    OFFSET 10.78128 -3.44521 -0.5502486
    CHANNELS 3 Zrotation Xrotation Yrotation
    JOINT left_femur_tibia
    {
      OFFSET 0.8047443 -44.0398 -0.1307829
      CHANNELS 3 Zrotation Xrotation Yrotation
      JOINT left_tibia_foot
      {
        OFFSET -4.370144 -48.10324 -4.275266
        CHANNELS 3 Zrotation Xrotation Yrotation
        End Site
        {
          OFFSET 0 -5 15
        }
      }
    }
  }
  JOINT pelvis_spine1
  {
    OFFSET 0 6.468898 -3.129235
    CHANNELS 3 Zrotation Xrotation Yrotation
    JOINT spine1
    {
      OFFSET 0 23.15396 4.99043
      CHANNELS 3 Zrotation Xrotation Yrotation
      JOINT spine2
      {
        OFFSET 0 20.79997 -5.064912
        CHANNELS 3 Zrotation Xrotation Yrotation
        JOINT neck
        {
          OFFSET 0 14.38658 9.616178
          CHANNELS 3 Zrotation Xrotation Yrotation
          End Site
          {
            OFFSET 0 20 0
          }
        }
      }
      JOINT right_manubrium
      {
        OFFSET -5.722621 16.35077 3.967754
        CHANNELS 3 Zrotation Xrotation Yrotation
        JOINT right_clavicle
        {
          OFFSET -13.16364 1.694482 -4.693211
          CHANNELS 3 Zrotation Xrotation Yrotation
          JOINT right_humerus
          {
            OFFSET -28.5034 -0.3100689 -2.792744
            CHANNELS 3 Zrotation Xrotation Yrotation
            JOINT right_radius
            {
              OFFSET -25.15693 0.02248979 -1.271978
              CHANNELS 3 Zrotation Xrotation Yrotation
              End Site
              {
                OFFSET -15 0 0
              }
            }
          }
        }
      }
      JOINT left_manubrium
      {
        OFFSET 5.722621 16.35077 3.967754
        CHANNELS 3 Zrotation Xrotation Yrotation
        JOINT left_clavicle
        {
          OFFSET 13.16364 1.694482 -4.693211
          CHANNELS 3 Zrotation Xrotation Yrotation
          JOINT left_humerus
          {
            OFFSET 29.39168 -1.063119 -2.237045
            CHANNELS 3 Zrotation Xrotation Yrotation
            JOINT left_radius
            {
              OFFSET 24.59957 -0.9528479 0.9047498
              CHANNELS 3 Zrotation Xrotation Yrotation
              End Site
              {
                OFFSET 15 -0 -0
              }
            }
          }
        }
      }
    }
  }
}
MOTION
Frames: 15
Frame Time: 0.0416666666667
0 103.5113 0 -0.3493849 -1.312502 0.05650534 0.3122051 -9.948609 10.51468 -0 33.60588 -0 -6.431603 -13.62654 -1.797305 -4.764714 6.414703 -18.59681 -0 9.539957 -0 6.202825 -20.09789 25.03869 -1.682629 -7.643345 5.134812 0.9795055 13.75762 -5.748991 4.447087 21.53143 0.2369942 0.003333554 -27.99543 8.870405 9.551452 -20.10088 12.31029 81.17843 31.29378 -19.17778 -0 0 20.81429 -12.96358 12.69729 1.985734 10.62928 -26.34919 -0.3792554 -98.81266 21.89337 23.27282 0 0 -9.310248 14.11624 26.84155 -2.052981
0.5696321 103.4824 1.1044 -0.3498213 -1.309014 0.07827516 0.9519049 -13.56148 10.52116 -0 39.6756 -0 -6.109524 -12.543 -2.996524 -4.975461 7.431339 -18.31999 -0 8.944453 -0 5.784718 -20.53615 24.56075 -1.982938 -7.012066 4.665741 1.173906 13.8286 -6.240733 4.261044 21.23475 0.5805032 0.1409878 -28.28815 8.939441 9.417588 -20.04828 11.95111 81.22693 31.59839 -18.93739 -0 0 20.7756 -13.72574 13.05241 2.709557 10.64356 -26.20434 -0.03122053 -98.24255 22.13695 23.10837 0 0 -9.826192 14.15359 26.03822 -1.534921
0.9446506 103.4748 2.298555 -0.3454957 -1.291223 0.196518 1.860415 -17.34958 10.15225 -0 43.81937 -0 -5.918555 -12.03415 -4.008162 -5.02138 8.521813 -18.04356 -0 8.209167 -0 5.210413 -20.93487 24.01339 -2.320476 -6.239724 4.346903 1.340497 13.77092 -6.64515 3.992368 20.97301 0.9965682 0.2537576 -28.51006 9.019387 9.308157 -19.89772 11.5632 81.486 31.96928 -18.86146 -0 0 20.6079 -14.48816 13.45692 3.457198 10.70762 -26.34822 0.5010253 -97.56452 22.39606 22.69939 0 0 -10.54998 14.26533 25.23657 -1.095084
1.373106 103.6379 3.819683 -0.3478028 -1.29162 0.189382 2.720094 -20.78827 9.359476 -0 45.94512 -0 -5.754136 -11.27683 -4.741558 -5.110462 9.887186 -17.67658 -0 7.35951 -0 4.488729 -21.2855 23.42028 -2.755142 -5.265852 4.012532 1.744958 13.67722 -7.186027 3.725383 20.62886 1.453558 0.3979247 -28.78453 9.133193 9.126381 -19.69881 11.28903 81.79546 32.45305 -18.92221 -0 0 20.23977 -15.27305 13.91814 4.222916 10.82316 -26.34931 0.725453 -97.01428 22.7002 22.08851 0 0 -11.55512 14.2996 24.44777 -0.75652
1.721123 103.6332 5.480728 -0.3485022 -1.287407 0.2121953 3.488321 -23.8911 8.360091 -0 44.60284 -0 -5.417427 -10.24135 -4.989176 -5.134755 11.38203 -17.2526 -0 6.474617 -0 3.730461 -21.75834 22.7469 -3.247295 -4.122491 3.760804 2.206036 13.40195 -7.69878 3.490008 20.28714 1.935786 0.5859083 -28.99795 9.291627 8.815147 -19.62742 11.22237 82.11789 33.06436 -18.85002 -0 0 19.88241 -16.12609 14.43412 5.083501 11.07451 -26.43718 0.7719708 -96.6201 23.05674 21.35895 0 0 -12.82275 14.25605 23.68338 -0.5239629
2.057964 103.3824 7.445841 -0.3401601 -1.257727 0.4073848 3.944567 -26.46678 7.579297 -0 40.29476 -0 -4.976317 -8.933318 -4.850167 -5.12623 13.02362 -16.77265 -0 5.663792 -0 2.977849 -22.43208 21.9387 -3.773567 -2.901099 3.396782 2.709184 13.0874 -8.331887 3.314166 19.80191 2.388329 0.8122276 -29.21569 9.448481 8.329585 -19.37533 11.26083 82.707 33.74486 -18.98091 -0 0 19.21651 -16.81566 14.91875 5.821101 11.43339 -26.53413 0.598445 -96.35792 23.49562 20.61018 0 0 -14.22596 14.08556 22.95805 -0.3502385
2.38497 102.9516 9.790805 -0.3134467 -1.175093 0.9623273 4.484382 -28.83261 6.895738 -0 34.99996 -0 -4.560598 -7.11395 -4.81327 -5.085983 14.82259 -16.20441 -0 4.988386 -0 2.184816 -23.25077 20.97549 -4.164064 -1.701686 3.0278 3.120858 12.77312 -8.987558 3.161292 19.28826 2.808346 1.056431 -29.42076 9.559037 7.823103 -18.98011 11.27863 83.62254 34.43907 -19.38702 -0 0 18.21163 -17.24614 15.34915 6.374576 11.70685 -26.75649 0.554776 -96.15532 23.91596 19.86079 0 0 -15.69348 13.88748 22.28178 -0.2254287
2.735229 102.3865 12.61868 -0.3058283 -1.147598 1.141802 4.657351 -30.26155 6.11326 -0 28.13445 -0 -4.272545 -5.636505 -4.558984 -5.132518 16.67121 -15.7772 -0 4.88166 -0 1.289436 -24.07061 19.89008 -4.232337 -0.7760336 2.862121 3.427561 12.45588 -9.466168 2.89781 18.9484 3.247526 1.237474 -29.50136 9.588405 7.230262 -18.51122 11.39652 84.74072 35.15858 -19.93411 -0 0 16.88844 -17.48181 15.72179 6.788124 11.96831 -27.02777 0.5633713 -96.21208 24.2691 19.28212 0 0 -17.1289 13.64357 21.63863 0.0002262561
2.937824 101.6136 15.75864 -0.2822581 -1.072242 1.645454 4.612635 -31.17155 5.381543 -0 21.41857 -0 -4.263415 -4.659743 -4.149003 -5.104401 18.53173 -15.28276 -0 5.029141 -0 0.2506885 -24.78029 18.68126 -4.079597 0.2980249 2.785122 3.551203 12.00538 -9.843043 2.607886 18.69407 3.612395 1.371802 -29.44339 9.490986 6.69282 -18.07882 11.67128 86.06652 35.88575 -20.50706 -0 0 15.40374 -17.55026 16.03943 7.12447 11.99155 -27.56627 0.5865463 -96.19427 24.66227 18.90345 0 0 -18.16091 13.23482 21.06568 0.3415914
3.161305 100.7902 19.2386 -0.2548147 -0.9834099 2.240089 4.831026 -31.79521 4.547316 -0 15.95152 -0 -4.467913 -4.240194 -3.935335 -5.093269 20.2861 -14.75981 -0 5.697536 -0 -1.026313 -25.146 17.3512 -3.835999 1.130877 2.687685 3.65164 11.59203 -10.21527 2.333183 18.54981 4.023945 1.550442 -29.35947 9.458613 6.194377 -17.64072 11.81983 87.38138 36.49464 -21.20879 -0 0 13.93687 -17.59044 16.27231 7.49794 11.70329 -27.91183 0.4636056 -96.15705 25.06556 18.60634 0 0 -18.72522 12.65732 20.53945 0.8238794
3.291468 100.0313 23.19792 -0.221529 -0.873327 2.977656 4.984948 -31.95801 3.896438 -0 13.10436 -0 -5.033925 -3.965168 -3.726633 -4.955874 21.84974 -14.24966 -0 7.120738 -0 -2.637268 -24.90953 15.89396 -3.50212 1.812884 2.558518 3.743264 11.14082 -10.54404 2.013884 18.47652 4.48779 1.733015 -29.3125 9.450642 5.900052 -17.31551 11.97386 88.54371 37.02168 -21.89157 -0 0 12.41684 -17.6084 16.438 7.878876 11.1017 -28.10061 0.2292052 -96.10204 25.44627 18.57077 0 0 -18.73687 11.92949 20.03877 1.44184
3.387433 99.46472 27.68089 -0.1875671 -0.7568706 3.756722 4.901851 -31.11983 3.314563 -0 13.44975 -0 -5.948768 -3.533216 -3.558993 -4.666475 23.13352 -13.68284 -0 9.608939 -0 -4.613754 -23.74145 14.30453 -3.199919 2.3515 2.285361 3.779877 10.7611 -10.95454 1.640917 18.50002 5.01119 1.954192 -29.35603 9.427644 5.705755 -16.98003 11.92572 89.50459 37.38228 -22.56132 -0 0 11.1606 -17.69801 16.51521 8.336271 10.28324 -28.09137 0.006221396 -96.02361 25.75471 18.868 0 0 -18.29692 11.10289 19.51982 2.13702
3.495912 99.22254 32.91405 -0.167108 -0.6832771 4.247414 4.855895 -29.75151 2.662266 -0 15.61642 -0 -6.932063 -3.234167 -3.480257 -4.522736 23.85891 -12.99275 -0 13.66719 -0 -6.894228 -21.14872 12.74726 -2.72358 2.477945 2.086996 3.813972 10.46006 -11.25889 1.224111 18.3898 5.459341 2.082793 -29.41644 9.295772 5.542237 -16.6097 11.88307 90.27156 37.63062 -23.16366 -0 0 9.973743 -17.8784 16.49136 8.867155 9.305842 -27.45793 -0.2275378 -96.295 25.94531 19.82991 0 0 -17.4388 10.17613 18.99869 2.987087
3.536782 99.46076 38.52545 -0.1653977 -0.6744744 4.30436 4.856912 -28.18728 2.162353 -0 18.34473 -0 -7.783754 -3.637774 -3.255437 -4.537048 23.60361 -12.32207 -0 19.49365 -0 -9.306858 -16.91959 11.33987 -2.208877 2.412965 2.10327 3.782772 10.20615 -11.33868 0.7195801 18.36733 5.881743 2.112708 -29.38442 9.090757 5.393798 -16.32654 11.92683 90.74939 37.79603 -23.42645 -0 0 9.107462 -18.14394 16.37473 9.495393 8.340689 -26.59432 -0.4058069 -96.56628 26.03849 21.06532 0 0 -16.43119 9.276569 18.49656 3.837214
3.743316 99.95628 44.38882 -0.1989247 -0.7858824 3.554418 5.063531 -25.7764 1.682819 -0 20.1349 -0 -8.458785 -4.758973 -2.810603 -5.02734 21.60066 -11.4128 -0 27.43095 -0 -11.44997 -11.60851 10.28794 -1.58145 2.201125 2.383356 3.662151 9.960195 -11.17454 0.2489787 18.37265 6.271883 2.133954 -29.33395 8.896898 5.132197 -16.37353 11.91408 90.53461 38.02 -22.99887 -0 0 8.657729 -18.41562 16.21402 10.14163 7.415149 -25.44592 -0.4878135 -96.91421 26.03031 22.53978 0 0 -15.40889 8.38161 18.02784 4.657626
